<?xml version="1.0" encoding="utf-8"?>
<!-- Generator: Adobe Illustrator 25.3.1, SVG Export Plug-In . SVG Version: 6.00 Build 0)  -->
<svg version="1.1" id="图层_1" xmlns="http://www.w3.org/2000/svg" xmlns:xlink="http://www.w3.org/1999/xlink" x="0px" y="0px"
	 viewBox="0 0 200 200" style="enable-background:new 0 0 200 200;" xml:space="preserve">
<style type="text/css">
	.st0{fill:#FF0000;}
	.st1{fill:#41719C;}
	.st2{enable-background:new    ;}
	.st3{fill:#A5A5A5;}
</style>
<g>
	<g>
		<g>
			<g>
				<path class="st0" d="M0.8,100.3c0,54.8,44.4,99.2,99.2,99.2s99.2-44.4,99.2-99.2S154.8,1.1,100,1.1S0.8,45.5,0.8,100.3z"/>
				<path class="st1" d="M100,200c-55,0-99.7-44.7-99.7-99.7S45,0.6,100,0.6c55,0,99.7,44.7,99.7,99.7S155,200,100,200z M100,1.6
					c-54.4,0-98.7,44.3-98.7,98.7c0,54.4,44.3,98.7,98.7,98.7c54.4,0,98.7-44.3,98.7-98.7C198.7,45.9,154.4,1.6,100,1.6z"/>
			</g>
		</g>
	</g>
</g>
<g class="st2">
	<path class="st3" d="M46,116.9l5-6c3.1,2.9,7.3,4.8,11.1,4.8c4.5,0,7-1.9,7-5c0-3.2-2.7-4.2-6.5-5.9l-5.8-2.5
		c-4.4-1.8-8.9-5.4-8.9-11.7c0-7.1,6.3-12.6,15.1-12.6c5.1,0,10.1,2,13.7,5.6L72.2,89c-2.8-2.3-5.7-3.6-9.3-3.6
		c-3.8,0-6.3,1.7-6.3,4.6c0,3.1,3.1,4.2,6.8,5.7l5.7,2.4c5.3,2.2,8.8,5.5,8.8,11.9c0,7.1-6,13.2-16,13.2
		C56.1,123.2,50.2,120.9,46,116.9z"/>
	<path class="st3" d="M85.7,78.8H100c9.7,0,17.1,3.4,17.1,13.7c0,10-7.5,14.5-16.9,14.5h-5.8v15.5h-8.7V78.8z M99.7,100
		c6,0,8.9-2.5,8.9-7.6c0-5.1-3.2-6.8-9.2-6.8h-5V100H99.7z"/>
	<path class="st3" d="M119.4,78.8h9.1l5.8,21.2c1.4,4.8,2.2,9.2,3.7,14.1h0.3c1.4-4.9,2.4-9.3,3.7-14.1l5.7-21.2h8.9l-13.4,43.7
		h-10.4L119.4,78.8z"/>
</g>
</svg>
