<?xml version="1.0" encoding="utf-8"?>
<!-- Generator: Adobe Illustrator 25.3.1, SVG Export Plug-In . SVG Version: 6.00 Build 0)  -->
<svg version="1.1" id="图层_1" xmlns="http://www.w3.org/2000/svg" xmlns:xlink="http://www.w3.org/1999/xlink" x="0px" y="0px"
	 viewBox="0 0 200 200" style="enable-background:new 0 0 200 200;" xml:space="preserve">
<style type="text/css">
	.st0{fill:#FAB400;}
	.st1{fill:#00325A;}
</style>
<g>
	<g>
		<g>
			<path class="st0" d="M0.8,100.3c0,54.8,44.4,99.2,99.2,99.2s99.2-44.4,99.2-99.2S154.8,1.1,100,1.1S0.8,45.5,0.8,100.3z"/>
			<g>
				<path class="st1" d="M100,13.2c23.3,0,45.2,9.1,61.6,25.5s25.5,38.3,25.5,61.6s-9.1,45.2-25.5,61.6s-38.3,25.5-61.6,25.5
					s-45.2-9.1-61.6-25.5s-25.5-38.3-25.5-61.6S22,55.1,38.4,38.7S76.7,13.2,100,13.2 M100,8.2c-50.9,0-92.1,41.2-92.1,92.1
					s41.2,92.1,92.1,92.1s92.1-41.2,92.1-92.1S150.9,8.2,100,8.2L100,8.2z"/>
			</g>
		</g>
	</g>
	<g>
		<g>
			<path class="st1" d="M41.4,68.3c0.6-0.7,1.4-0.9,2.3-0.9c6.4,0,12.8,0,19.2,0c1.9,0,2.3,0.4,2.3,2.3c0,5.6,0,11.1,0,16.7
				c0,1.1,0.3,1.3,1.3,1.3c5.8,0,11.7,0,17.5,0c1.7,0,2.2,0.5,2.2,2.2c0,5.5,0,11.1,0,16.6c0,1.5,0,1.5,1.5,1.5c5.7,0,11.4,0,17.2,0
				c1.9,0,2.3,0.3,2.3,2.3c0,5.6,0,11.3,0,16.9c0,0.9,0.2,1.1,1.1,1.1c5.9,0,11.7,0,17.6,0c1.9,0,2.3,0.4,2.3,2.3
				c0,6.2,0,12.4,0,18.6c0,0.4,0,0.8-0.1,1.1c-0.2,0.8-0.7,1.2-1.5,1.1c-0.8,0-1.3-0.5-1.3-1.3c0-0.3,0-0.7,0-1c0-5.6,0-11.3,0-16.9
				c0-0.8-0.2-1-1-1c-5.8,0-11.7,0-17.5,0c-2.1,0-2.5-0.4-2.5-2.4c0-5.6,0-11.1,0-16.7c0-1-0.3-1.2-1.2-1.2c-5.8,0-11.6,0-17.4,0
				c-2,0-2.3-0.3-2.3-2.3c0-5.6,0-11.2,0-16.8c0-0.9-0.2-1.1-1.1-1.1c-5.8,0-11.7,0-17.5,0c-2,0-2.4-0.4-2.4-2.3
				c0-5.6,0-11.3,0-16.9c0-0.9-0.2-1.1-1.1-1.1c-5.9,0-11.8,0-17.7,0c-0.9,0-1.6-0.2-2.1-1C41.4,69,41.4,68.6,41.4,68.3z"/>
		</g>
		<g>
			<path class="st1" d="M100.2,63c4.2-4.8,9.1-8.7,15.1-11.1c1.2-0.5,2.4-0.9,3.7-1.1c2.4-0.4,4.7,1.2,5.4,3.7
				c0.7,2.6-0.4,4.8-2.9,5.7c-1.6,0.6-3.3,1-4.8,1.9c-0.6,0.3-1.2,0.7-2,1.1c0.5,0.2,0.8,0.1,1.2,0c4.6-1.4,9.3-2.2,14.1-2.5
				c3-0.2,5,1.3,5.3,4.2c0.3,2.8-1.7,5.3-4.4,5.5c-3.1,0.3-6.3,0.6-9.4,1.4c-3.5,0.9-6.9,2-10.3,3.4c1.9,2.3,3.9,4.3,5.9,6.4
				c1.7,1.7,3.6,3.3,5.5,4.8c0.6,0.4,1.1,0.6,1.8,0.4c9.9-2.4,19.8-1.9,29.6,0.6c3.4,0.9,4.9,3.6,4.2,7c-0.8,3.3-3.5,5.1-6.8,4.4
				c-3.9-0.8-7.8-1.6-11.8-1.8c-1.8-0.1-3.5,0.1-5.5,0.1c0.7,0.6,1.2,1,1.7,1.5c4.5,3.9,6.5,9.1,7.5,14.7c0.4,2.4,0.7,4.9,1,7.3
				c0.4,3.4-0.7,5.5-3.5,6.3c-3,0.9-6.4-0.6-7.6-3.3c-0.4-1-0.6-2-0.7-3c-0.2-2.2-0.5-4.3-0.9-6.4c-0.6-3.2-2.3-5.6-4.9-7.6
				c-2.1-1.6-4.3-2.9-6.5-4.2c-0.4-0.2-0.8-0.3-1.2-0.3c-1.8,0.2-3.4-0.5-4.9-1.5c-6.4-4.7-11.7-10.5-17.1-16.3
				c-0.7-0.8-1.4-1.6-2.2-2.4c-2.6-2.8-3.1-4.5-2.6-8.4c-1.3,0.4-2.5,0.8-3.8,1c-6.7,0.9-13.3-4.1-14.1-10.8
				c-0.9-7.3,4-13.8,11-14.5c7.9-0.8,14.2,4.8,14.3,12.8C100,62.4,99.6,62.8,100.2,63z"/>
		</g>
		<g>
			<path class="st1" d="M100.2,63c-0.1,0.3-0.3,0.5-0.4,0c-0.1-0.3-0.1-0.7,0.2-1C100.2,62.3,99.8,62.8,100.2,63z"/>
		</g>
	</g>
</g>
</svg>
