<?xml version="1.0" encoding="utf-8"?>
<!-- Generator: Adobe Illustrator 25.3.1, SVG Export Plug-In . SVG Version: 6.00 Build 0)  -->
<svg version="1.1" id="图层_1" xmlns="http://www.w3.org/2000/svg" xmlns:xlink="http://www.w3.org/1999/xlink" x="0px" y="0px"
	 viewBox="0 0 200 200" style="enable-background:new 0 0 200 200;" xml:space="preserve">
<style type="text/css">
	.st0{fill:#FAB400;}
	.st1{fill:#00325A;}
</style>
<g>
	<g>
		<g>
			<path class="st0" d="M0.8,100.3c0,54.8,44.4,99.2,99.2,99.2s99.2-44.4,99.2-99.2S154.8,1.1,100,1.1S0.8,45.5,0.8,100.3z"/>
			<g>
				<path class="st1" d="M100,13.2c23.3,0,45.2,9.1,61.6,25.5s25.5,38.3,25.5,61.6s-9.1,45.2-25.5,61.6s-38.3,25.5-61.6,25.5
					s-45.2-9.1-61.6-25.5s-25.5-38.3-25.5-61.6S22,55.1,38.4,38.7S76.7,13.2,100,13.2 M100,8.2c-50.9,0-92.1,41.2-92.1,92.1
					s41.2,92.1,92.1,92.1s92.1-41.2,92.1-92.1S150.9,8.2,100,8.2L100,8.2z"/>
			</g>
		</g>
	</g>
	<g>
		<g>
			<path class="st1" d="M85.5,153.5c-2-0.2-4-0.4-6-0.6c-6.6-0.9-12.9-2.4-18.7-5.8c-1.9-1.1-3.6-2.4-4.7-4.3
				c-0.4-0.8-0.7-1.7-0.9-2.6c2,3.8,5.7,5,9.3,6.3c6,2.1,12.2,3.2,18.5,4.2c4.9,0.8,9.9,1.5,14.8,2.3c-1.7,0.2-3.4,0.4-5.1,0.6
				C90.3,153.5,87.9,153.5,85.5,153.5z"/>
		</g>
		<g>
			<path class="st1" d="M99.6,88c1.3,1.9,2.6,3.6,3.9,5.4c1.2,1.8,2.5,3.6,3.7,5.3c2.2-0.7,4.4-1.6,6.7-2.3c2.9-0.8,6-1.2,9-1
				c0.1,0,0.3,0.1,0.4,0c3.4-1.3,6.4,0.3,9.3,1.7c3.2,1.6,6.4,3.5,9.4,5.4c2.8,1.8,3.5,5.4,1.8,8.1c-1.7,2.7-5.2,3.6-8.1,1.9
				c-2.3-1.4-4.7-2.7-7-4.1c-2.4-1.5-4.9-1.3-7.5-1.1c-4.6,0.4-8.8,1.8-12.6,4.4c1.2,2.2,2.4,4.4,3.5,6.6c2.5,5.2,4,10.6,4.5,16.3
				c0.3,3.8,0.4,7.7,0.4,11.5c0,3.2-2.1,5.5-5.2,5.8c-3.5,0.4-6.2-1.4-6.9-4.6c-0.2-0.9-0.2-1.9-0.1-2.8c0.1-5.4-0.3-10.6-1.8-15.8
				c-1.7-5.7-4.6-10.7-8.5-15.2c-0.2-0.3-0.6-0.5-0.9-0.6c-1.6-0.7-2.8-1.7-3.8-3.1c-5.9-8.3-11.9-16.6-17.8-24.9
				c-1.9-2.7-3-5.6-2.5-9c0.4-2.9,1.9-5.2,4.3-6.8c8.6-5.7,16.9-11.9,24-19.4c3.6-3.8,8.3-2,10.1,0.7c1.4,2,1.4,4.2-0.2,6
				c-1.6,1.8-3.3,3.6-5.2,5.2c-4.2,3.7-8.5,7.2-12.8,10.8c-0.2,0.2-0.4,0.4-0.7,0.6c1.1,1.5,2.2,3.1,3.3,4.6c3.1-2.3,5.5-5.2,7-8.7
				c0.8-1.7,1.7-3.2,3.5-4c3.7-1.6,8.4,0.8,8.8,4.6c0.1,1.1-0.2,2.3-0.7,3.4c-2.3,5.6-5.9,10.4-10.7,14.2
				C100.1,87.6,99.9,87.7,99.6,88z"/>
		</g>
		<g>
			<path class="st1" d="M77.4,57.9c0,5.9-4.9,10.8-10.8,10.8c-5.9,0-10.7-4.9-10.7-10.8c0-5.9,4.9-10.8,10.8-10.8
				C72.6,47.1,77.4,51.9,77.4,57.9z"/>
		</g>
		<g>
			<path class="st1" d="M74.2,136.7c1.4,2.2,3.5,2.9,5.6,3.4c5.5,1.3,11.1,2.4,16.6,3.5c1.1,0.2,2.2,0.5,3.3,0.7c0,0.1,0,0.2,0,0.3
				c-1.3,0.2-2.6,0.4-3.9,0.5c-5.8,0.4-11.4-0.2-16.7-2.8c-1.2-0.6-2.3-1.5-3.4-2.3C74.8,139.3,74.1,138.3,74.2,136.7z"/>
		</g>
	</g>
</g>
</svg>
