<?xml version="1.0" encoding="utf-8"?>
<!-- Generator: Adobe Illustrator 25.3.1, SVG Export Plug-In . SVG Version: 6.00 Build 0)  -->
<svg version="1.1" id="图层_1" xmlns="http://www.w3.org/2000/svg" xmlns:xlink="http://www.w3.org/1999/xlink" x="0px" y="0px"
	 viewBox="0 0 200 200" style="enable-background:new 0 0 200 200;" xml:space="preserve">
<style type="text/css">
	.st0{fill:#FAB400;}
	.st1{fill:#00325A;}
</style>
<g>
	<g>
		<path class="st0" d="M0.8,100c0,54.8,44.4,99.2,99.2,99.2s99.2-44.4,99.2-99.2S154.8,0.8,100,0.8S0.8,45.2,0.8,100z"/>
		<g>
			<path class="st1" d="M100,12.9c23.3,0,45.2,9.1,61.6,25.5s25.5,38.3,25.5,61.6s-9.1,45.2-25.5,61.6s-38.3,25.5-61.6,25.5
				s-45.2-9.1-61.6-25.5S12.9,123.3,12.9,100S22,54.8,38.4,38.4S76.7,12.9,100,12.9 M100,7.9C49.1,7.9,7.9,49.1,7.9,100
				s41.2,92.1,92.1,92.1s92.1-41.2,92.1-92.1S150.9,7.9,100,7.9L100,7.9z"/>
		</g>
	</g>
	<g>
		<path class="st1" d="M155.1,89.2c-0.5,1.7-0.7,3.5-1.3,5.1c-2.2,6-6,10.6-11.6,13.7c-0.8,0.4-1,0.5-1-0.6c0-8.1,0-16.1,0-24.2
			c0-5.5-3.4-9.7-8.7-10.7c-6.2-1.2-12.3,3.6-12.4,9.9c-0.1,8.2,0,16.5,0,24.7c0,0.4,0,0.8,0,1.3c-2.8-1.3-5.1-3-7.1-5.1
			c-4.6-4.8-6.8-10.6-6.8-17.3c0-4.5,0-8.9,0-13.4c0-1.6,0.5-2.7,1.8-3.6c5.3-3.7,10.6-7.4,15.9-11.2c4.2-2.9,9.3-3,13.5-0.1
			c5.4,3.8,10.8,7.6,16.2,11.3c0.8,0.5,1.2,1.3,1.6,2C155.1,77.2,155.1,83.2,155.1,89.2z"/>
	</g>
	<g>
		<path class="st1" d="M45,102.6c0-4.2,0-8.3,0-12.5c0.7-3.6,3-6,6.1-7.8c0.5-0.3,1.1-0.6,1.5-1c1.1-1,2.4-1.2,3.8-1.2
			c5.7,0.1,11.4,0,17.1,0c0.6,0,1.2,0.2,1.7,0.5c1.5,1,3,2,4.4,3.1c2.7,1.9,4.1,4.5,4.1,7.8c0,3.4,0,7.7,0,11.1"/>
	</g>
	<g>
		<path class="st1" d="M98.1,98.5c0,10.9,0,21.8,0,32.6c0,7.2,4.8,13.1,11.9,14.5c8.6,1.8,17.2-5,17.4-13.7c0-0.8,0-1.6,0-2.4
			c0-0.4,0-0.7,0.6-0.7c1.8,0.1,3.5,0.1,5.3,0c0.5,0,0.6,0.1,0.6,0.6c0.7,11.3-6.7,20.6-17.8,22.6c-10.8,1.9-22-5.9-24-16.8
			c-0.3-1.6-0.4-3.2-0.4-4.8c0-21.3,0-42.7,0-64c0-6.1-3.6-10.8-9.3-12.1c-7-1.7-14.1,3.4-14.7,10.6c0,0.5,0,0.7,0.6,0.7
			c1,0,1.9,0,2.9,0c2,0,3.3,1.4,3.3,3.3c0,1.3,0,2.6,0,3.9c0,0.7-0.2,0.8-0.9,0.8c-6.2,0-12.3,0-18.5,0c-0.7,0-1-0.1-0.9-0.9
			c0.1-1.2,0-2.4,0-3.6c0-2.1,1.4-3.4,3.5-3.5c0.5,0,1.1,0,1.6,0c1.7,0,1.7,0,1.9-1.7c1-9.1,8.8-16.2,18.1-16.4
			c9.3-0.2,17.3,6.7,18.6,15.9c0.2,1.1,0.2,2.2,0.2,3.3C98.1,77.3,98.1,87.9,98.1,98.5z"/>
	</g>
	<g>
		<path class="st1" d="M126.5,109.2c0-3.7,0-7.4,0-11c0-0.6,0.1-0.9,0.8-0.8c2.2,0,4.4,0.1,6.7,0c0.7,0,0.8,0.2,0.8,0.9
			c0,7.3,0,14.5,0,21.8c0,1.8-0.8,2.5-2.6,2.5c-1.1,0-2.1,0-3.2,0c-1.6,0-2.4-0.8-2.4-2.5C126.5,116.4,126.5,112.8,126.5,109.2z"/>
	</g>
	<g>
		<path class="st1" d="M126.5,86.5c0-1.2,0-2.4,0-3.5c0.1-2.3,1.8-4,4-4c2.3,0,4.1,1.6,4.2,4c0.1,2.4,0,4.9,0,7.3
			c0,0.6-0.1,0.8-0.8,0.8c-2.3,0-4.5,0-6.8,0c-0.6,0-0.8-0.1-0.7-0.7C126.5,89,126.5,87.7,126.5,86.5
			C126.5,86.5,126.5,86.5,126.5,86.5z"/>
	</g>
	<g>
		<g>
			<path class="st1" d="M60,120.2c-3.4,0-5.7,2.9-5.7,7.7c0,4.8,2.2,7.8,5.7,7.8c3.4,0,5.7-3.1,5.7-7.8
				C65.7,123.1,63.4,120.2,60,120.2z"/>
		</g>
		<g>
			<path class="st1" d="M45,102.6c-0.3,0,0.3,31.5,0,31.6c0,5.2,0,10.5,0,15.7c0.7,1.9,2.1,2.6,4.1,2.6c10.3,0,20.6,0,31,0
				c2.4,0,3.7-1.3,3.7-3.7c0-4.5,0-46.1,0-46.1L45,102.6z M60,137.8c-4.8,0-8.1-3.8-8.1-9.9c0-6.1,3.4-9.8,8.1-9.8s8.1,3.7,8.1,9.8
				C68.1,134,64.8,137.8,60,137.8z M76.7,136.5h-5.9v-1c2.4-2.2,3.8-3.8,3.8-5.2c0-0.9-0.5-1.4-1.3-1.4c-0.6,0-1.2,0.4-1.6,0.9l-1-1
				c0.8-0.9,1.6-1.3,2.8-1.3c1.7,0,2.8,1.1,2.8,2.7c0,1.6-1.3,3.3-3,4.9c0.4,0,1-0.1,1.4-0.1h1.9V136.5z"/>
		</g>
	</g>
</g>
</svg>
