<?xml version="1.0" encoding="utf-8"?>
<!-- Generator: Adobe Illustrator 25.3.1, SVG Export Plug-In . SVG Version: 6.00 Build 0)  -->
<svg version="1.1" id="图层_1" xmlns="http://www.w3.org/2000/svg" xmlns:xlink="http://www.w3.org/1999/xlink" x="0px" y="0px"
	 viewBox="0 0 200 200" style="enable-background:new 0 0 200 200;" xml:space="preserve">
<style type="text/css">
	.st0{fill:#FAB400;}
	.st1{fill:#00325A;}
</style>
<g>
	<g>
		<path class="st0" d="M0.8,100.3c0,54.8,44.4,99.2,99.2,99.2s99.2-44.4,99.2-99.2S154.8,1.1,100,1.1S0.8,45.5,0.8,100.3z"/>
		<g>
			<path class="st1" d="M100,13.2c23.3,0,45.2,9.1,61.6,25.5s25.5,38.3,25.5,61.6s-9.1,45.2-25.5,61.6s-38.3,25.5-61.6,25.5
				s-45.2-9.1-61.6-25.5s-25.5-38.3-25.5-61.6S22,55.1,38.4,38.7S76.7,13.2,100,13.2 M100,8.2c-50.9,0-92.1,41.2-92.1,92.1
				s41.2,92.1,92.1,92.1s92.1-41.2,92.1-92.1S150.9,8.2,100,8.2L100,8.2z"/>
		</g>
	</g>
	<g>
		<path class="st1" d="M117.2,123.1c0,4.3,0,8.6,0,12.9c0,2.7-1.5,4.2-4.2,4.2c-8.7,0-17.4,0-26.1,0c-2.7,0-4.2-1.5-4.2-4.1
			c0-8.8,0-17.5,0-26.3c0-1.7,0.7-3,2.2-3.7c0.6-0.3,0.9-0.3,0.9,0.6c0,2,0,3.9,0,5.9c0,3.2,2.1,5.3,5.3,5.3c5.9,0,11.8,0,17.8,0
			c3.1,0,5.2-2.2,5.2-5.3c0-2,0-3.9,0-5.9c0-0.7,0.2-0.9,0.8-0.6c1.5,0.7,2.3,1.9,2.3,3.6C117.3,114.1,117.2,118.6,117.2,123.1z"/>
		<path class="st1" d="M90.5,88.7c4.3-5.8,8.4-11.5,12.5-17.1c5.7-7.7,11.3-15.5,17-23.3c0.9-1.2,1.8-1.7,3.3-1.7
			c4,0.1,8.1,0,12.1,0c1.1,0,1.9,0.3,2.4,1.3c0.5,1,0.2,1.8-0.4,2.6c-9.1,12.5-18.3,25-27.4,37.5c-0.2,0.3-0.4,0.7-1,0.7
			C102.9,88.7,96.8,88.7,90.5,88.7z"/>
		<path class="st1" d="M71,46.6c2.1,0,4.3,0,6.4,0c1,0,1.7,0.4,2.2,1.1c6.2,8.5,12.3,16.9,18.5,25.3c0.3,0.4,0.4,0.8,0,1.2
			c-0.1,0-0.1,0.1-0.1,0.2c-1.2,2.5-3.2,3.4-5.9,3.4c-2.6,0-5.2,0.6-7.8,1.2c-0.6,0.1-0.9,0.1-1.3-0.5c-6.8-9.4-13.7-18.7-20.5-28.1
			c-0.6-0.8-0.9-1.7-0.4-2.6c0.5-0.9,1.3-1.3,2.4-1.2C66.7,46.7,68.9,46.6,71,46.6z"/>
		<path class="st1" d="M94,79.9c-1.6,2.2-3.1,4.3-4.6,6.3c-0.3,0.4-0.6,0.3-0.9,0.3c-1.6,0-3.3,0-4.9,0c-1.1,0-1.5,0.4-1.5,1.4
			c0,1.2,0,2.4,0,3.6c0,1,0.5,1.4,1.4,1.4c0.2,0,0.4,0,0.6,0c10.6,0,21.2,0,31.7,0c1.9,0,2-0.2,2-2.1c0-1,0-2,0-3
			c0-0.9-0.4-1.3-1.3-1.3c-0.8,0-1.7,0-2.7,0c1.2-1.6,2.3-3.1,3.3-4.6c0.2-0.3,0.4-0.2,0.6-0.1c1.2,0.4,2.5,0.6,3.7,1
			c1.3,0.4,1.9,1.4,1.9,2.7c0,2.8,0,5.5,0,8.3c0,1.4-0.8,2.4-2.2,2.8c-8.5,2.6-17.2,3.5-26,3c-5.5-0.3-10.9-1.3-16.2-2.9
			c-1.9-0.5-2.6-1.4-2.6-3.4c0-2.5,0-4.9,0-7.4c0-2,0.6-2.8,2.5-3.4C83.8,81.3,88.8,80.4,94,79.9z"/>
		<path class="st1" d="M100.1,142.5c3,0,6,0,9,0c0.6,0,0.8,0.1,0.8,0.8c0,2.7,0,5.4,0,8.1c0,1.6-0.9,2.5-2.6,2.5
			c-4.9,0-9.8,0-14.7,0c-1.6,0-2.5-0.9-2.5-2.5c0-2.6,0-5.3,0-7.9c0-0.8,0.1-1,1-1C94,142.6,97.1,142.5,100.1,142.5z"/>
		<path class="st1" d="M108.4,101.7c-1.2,2.7-1.8,5.4-2.1,8.1c-0.1,0.9-0.7,1.5-1.7,1.5c-3,0-6.1,0-9.1,0c-1,0-1.6-0.6-1.7-1.5
			c-0.3-2.8-0.9-5.5-2.1-8.2C97.2,102.4,102.8,102.4,108.4,101.7z"/>
		<path class="st1" d="M100,115.6c-2.8,0-5.7,0-8.5,0c-2.3,0-3.3-1.1-3.4-3.3c0-1.9,0-3.9,0-5.8c0-0.6,0.2-0.7,0.8-0.7
			c1.8,0,1.8,0,2.2,1.7c0.2,0.8,0.3,1.6,0.3,2.4c0.2,2.2,1.9,3.8,4.1,3.9c3,0,6,0,9,0c2.2,0,3.9-1.6,4.1-3.9
			c0.1-1.1,0.3-2.2,0.5-3.3c0.1-0.6,0.4-0.9,1-0.8c0.3,0,0.6,0,0.9,0c0.6-0.1,0.8,0.1,0.8,0.7c0,2,0,3.9,0,5.9
			c0,2.1-1.1,3.2-3.2,3.2C105.8,115.6,102.9,115.6,100,115.6z"/>
	</g>
</g>
</svg>
