<?xml version="1.0" encoding="utf-8"?>
<!-- Generator: Adobe Illustrator 25.3.1, SVG Export Plug-In . SVG Version: 6.00 Build 0)  -->
<svg version="1.1" id="图层_1" xmlns="http://www.w3.org/2000/svg" xmlns:xlink="http://www.w3.org/1999/xlink" x="0px" y="0px"
	 viewBox="0 0 200 200" style="enable-background:new 0 0 200 200;" xml:space="preserve">
<style type="text/css">
	.st0{fill:#FAB400;}
	.st1{fill:#00325A;}
</style>
<g>
	<g>
		<path class="st0" d="M0.8,100c0,54.8,44.4,99.2,99.2,99.2s99.2-44.4,99.2-99.2S154.8,0.8,100,0.8S0.8,45.2,0.8,100z"/>
		<g>
			<path class="st1" d="M100,12.9c23.3,0,45.2,9.1,61.6,25.5s25.5,38.3,25.5,61.6s-9.1,45.2-25.5,61.6s-38.3,25.5-61.6,25.5
				s-45.2-9.1-61.6-25.5S12.9,123.3,12.9,100S22,54.8,38.4,38.4S76.7,12.9,100,12.9 M100,7.9C49.1,7.9,7.9,49.1,7.9,100
				s41.2,92.1,92.1,92.1s92.1-41.2,92.1-92.1S150.9,7.9,100,7.9L100,7.9z"/>
		</g>
	</g>
</g>
<g>
	<g>
		<path class="st1" d="M108.4,37.6H91.6c-2,0-3.5,1.6-3.3,3.5l7.8,83.1c0.2,1.7,1.6,2.9,3.3,2.9h1.3c1.7,0,3.2-1.3,3.3-3l7.7-83.1
			C111.9,39.2,110.4,37.6,108.4,37.6z"/>
	</g>
</g>
<g>
	<g>
		<path class="st1" d="M100,138.3c-6.7,0-12,5.4-12,12s5.4,12,12,12s12-5.4,12-12C112.2,143.7,106.7,138.3,100,138.3z"/>
	</g>
</g>
</svg>
