<?xml version="1.0" encoding="utf-8"?>
<!-- Generator: Adobe Illustrator 25.3.1, SVG Export Plug-In . SVG Version: 6.00 Build 0)  -->
<svg version="1.1" id="图层_1" xmlns="http://www.w3.org/2000/svg" xmlns:xlink="http://www.w3.org/1999/xlink" x="0px" y="0px"
	 viewBox="0 0 200 200" style="enable-background:new 0 0 200 200;" xml:space="preserve">
<style type="text/css">
	.st0{fill:#FAB400;}
	.st1{fill:#00325A;}
</style>
<g>
	<g>
		<g>
			<path class="st0" d="M0.8,100.3c0,54.8,44.4,99.2,99.2,99.2s99.2-44.4,99.2-99.2S154.8,1.1,100,1.1S0.8,45.5,0.8,100.3z"/>
			<g>
				<path class="st1" d="M100,13.2c23.3,0,45.2,9.1,61.6,25.5s25.5,38.3,25.5,61.6s-9.1,45.2-25.5,61.6s-38.3,25.5-61.6,25.5
					s-45.2-9.1-61.6-25.5s-25.5-38.3-25.5-61.6S22,55.1,38.4,38.7S76.7,13.2,100,13.2 M100,8.2c-50.9,0-92.1,41.2-92.1,92.1
					s41.2,92.1,92.1,92.1s92.1-41.2,92.1-92.1S150.9,8.2,100,8.2L100,8.2z"/>
			</g>
		</g>
	</g>
	<g>
		<path class="st1" d="M119.8,88c-0.9,3.2-1.8,6-2.4,8.9c-1.2,6.7,3.2,13.9,9.9,16.4c6.4,2.4,13.5,0,17.2-6.1
			c0.8-1.3,1.4-1.6,2.8-1.1c1,0.4,2.1,0.4,3.2,0.5c2.3,0.2,3.1,1,3.1,3.2c0,10.2,0,20.4,0,30.6c0,2.1-1,3.3-3.1,3
			c-4.3-0.5-7.4,1.1-10.5,3.9c-4.1,3.8-9.4,5.3-15,5.3c-14.6,0-29.2,0-43.8,0c-0.7,0-1.3,0-2-0.2c-2.4-0.5-3.9-2.5-3.7-4.9
			c0.2-2.3,1.9-4.1,4.3-4.1c5.8-0.1,11.6-0.1,17.3-0.1c0.9,0,1.8,0.2,2.7-0.1c0.6-0.2,1.1-0.9,1.6-1.4c-0.5-0.5-0.9-1.2-1.5-1.5
			c-0.5-0.3-1.3-0.1-1.9-0.1c-12.6,0-25.2,0-37.7,0c-0.9,0-1.9,0-2.8-0.3c-2-0.6-3.2-2.8-3-4.8c0.3-2.2,2.1-3.9,4.4-4
			c3.5-0.1,6.9-0.1,10.4-0.1c8.5,0,17.1,0,25.6,0c0.4,0,0.7,0,1.1,0c1.1,0,2.5,0.1,2.5-1.6c0-1.5-1.3-1.4-2.4-1.4c-2,0-4.1,0-6.1,0
			c-12.4,0-24.8,0-37.2,0c-0.7,0-1.4,0-2.1,0c-2.3-0.2-4.1-2-4.2-4.3c-0.1-2.2,1.5-4.3,3.8-4.7c1-0.2,2-0.2,3-0.2
			c14.1,0,28.1,0,42.2,0c1.2,0,3,0.6,3-1.5c-0.1-1.8-1.8-1.4-3-1.4c-12,0-24.1,0-36.1,0c-3,0-5-1.7-5.2-4.3
			c-0.1-2.4,1.3-4.3,3.6-4.8c0.9-0.2,1.9-0.2,2.8-0.2c13.8,0,27.5,0,41.3-0.1c2.2,0,4.5-0.4,6.7-1c4.2-1.2,5.5-6,2.5-9.1
			c-1.8-1.9-3.9-3.4-5.9-5.2c-2.7-2.4-5.6-4.7-8.1-7.3c-2.1-2.2-2.1-5-0.4-6.8c1.1-1.2,2.3-1.4,3.4-0.3c4.5,4.3,10.1,6.7,15.6,9.2
			C117.1,86.8,118.5,87.4,119.8,88z"/>
		<path class="st1" d="M68.8,73.4c0-4.2,2.6-8.3,6.7-9.7c14.7-5.2,29.4-10.3,44.2-15.4c3.4-1.2,6.5,0.4,7.8,3.7c1,2.7,2,5.4,2.8,8.1
			c1.1,3.4-0.4,6.6-3.8,7.8c-6.2,2.3-12.5,4.4-18.7,6.5c-0.6,0.2-1.4-0.2-2.1-0.4c-0.4-0.1-0.6-0.5-0.9-0.8
			c-2.6-2.5-5.6-3.7-9.1-2.4c-3.6,1.4-5.6,4.3-6,8c-0.2,1.7-0.8,2.4-2.3,2.8c-1.7,0.5-3.4,1.2-5.1,1.7
			C75.6,85.3,68.8,80.3,68.8,73.4z M105.2,59.9c0,0.1,0,0.3,0,0.4c0.6,0.2,1.2,0.4,1.8,0.5c3.4,0.8,6.9,1.4,10.2,2.4
			c2.4,0.7,4.3-0.2,6.3-1c0.3-0.1,0.6-0.8,0.5-1.1c-0.7-2.3-1.6-4.6-2.4-7.1C116.1,56.1,110.6,58,105.2,59.9z"/>
		<path class="st1" d="M141.3,98.6c-0.1,4.9-3.6,9-8.4,9.7c-4.4,0.7-9.4-3.9-9.6-8.9c-0.1-1.7,0.1-3.5,0.8-5c2-4.2,4.3-8.4,6.5-12.5
			c0.8-1.5,2.1-1.6,2.9-0.2c2.9,4.5,5.7,9.1,7.2,14.3C141.1,96.8,141.1,97.7,141.3,98.6z"/>
	</g>
</g>
</svg>
